# File created by Blade
# Date/Time:  Thu Sep 25 18:58:07 2014
# Frame Rate: 120.000 fps
#------------------------------------------------------
:FULLY-SPECIFIED
:DEGREES
2440
root 1.629168 32.910982 1.398041 8.567540 0.489197 -0.212878
Spine -8.631212 6.552874 -1.375153
Head -24.380385 -7.023119 11.199594
LeftShoulder -10.987922 11.091392 29.917821
LeftArm 24.804762 -13.779411 -24.147150
LeftForeArm 15.633119 0.000000 14.915518
LeftHand -25.930905 -0.000000 -9.233169
LeftHandThumb1 -26.253704 0.000000 33.147579
RightShoulder -19.343155 17.349327 -37.172208
RightArm 0.743352 1.323194 39.002840
RightForeArm -34.081022 -0.000000 13.820616
RightHand -9.092740 -0.000000 12.886134
RightHandThumb1 -24.326973 -0.000000 -32.862282
LeftUpLeg -2.144002 11.022974 3.521886
LeftLeg -3.869277 -0.000000 0.000000
LeftFoot -4.958839 -3.852208 -18.391714
LeftToeBase 8.904302 -0.000000 -0.000000
RightUpLeg -2.611300 -11.515436 -6.268040
RightLeg -1.272836 -0.000000 0.000000
RightFoot -2.946190 -0.081146 4.177794
RightToeBase -3.067075 -0.000000 0.000000
2441
root 1.626307 32.911357 1.419372 8.719818 0.412167 -0.234599
Spine -8.700805 6.566823 -1.433124
Head -24.615561 -6.977113 11.231215
LeftShoulder -11.520674 11.516303 29.711660
LeftArm 24.134203 -14.430590 -24.502903
LeftForeArm 15.844075 -0.000000 14.872916
LeftHand -26.196562 -0.000000 -8.865477
LeftHandThumb1 -26.253704 0.000000 33.147579
RightShoulder -19.692163 16.862492 -37.383380
RightArm -0.294344 2.203852 38.615023
RightForeArm -34.228867 -0.000000 13.956508
RightHand -9.400347 -0.000000 12.844046
RightHandThumb1 -24.326973 -0.000000 -32.862282
LeftUpLeg -2.236904 11.028599 3.521420
LeftLeg -3.889987 -0.000000 0.000000
LeftFoot -4.994965 -3.775485 -18.385579
LeftToeBase 8.814315 -0.000000 -0.000000
RightUpLeg -2.722691 -11.503474 -6.223703
RightLeg -1.319393 -0.000000 0.000000
RightFoot -2.913367 -0.026654 4.188381
RightToeBase -3.081668 -0.000000 0.000000
2442
root 1.620515 32.910814 1.440847 8.874161 0.319113 -0.252746
Spine -8.770884 6.528152 -1.510045
Head -24.789934 -6.832213 11.302337
LeftShoulder -12.094506 12.008073 29.535852
LeftArm 23.488034 -15.144211 -24.904522
LeftForeArm 16.026250 -0.000000 14.789215
LeftHand -26.413439 0.000000 -8.555187
LeftHandThumb1 -26.253704 0.000000 33.147579
RightShoulder -20.022271 16.468444 -37.616437
RightArm -1.300960 2.909903 38.279240
RightForeArm -34.356872 -0.000000 14.003074
RightHand -9.576089 -0.000000 12.938812
RightHandThumb1 -24.326973 -0.000000 -32.862282
LeftUpLeg -2.327198 11.054442 3.521952
LeftLeg -3.909219 -0.000000 0.000000
LeftFoot -5.032842 -3.708032 -18.412183
LeftToeBase 8.795208 -0.000000 -0.000000
RightUpLeg -2.843988 -11.495842 -6.176740
RightLeg -1.356816 -0.000000 0.000000
RightFoot -2.900885 0.036921 4.170691
RightToeBase -3.073196 -0.000000 0.000000
2443
root 1.617864 32.910713 1.459831 9.046578 0.249084 -0.251932
Spine -8.863168 6.501519 -1.591239
Head -24.993743 -6.747438 11.324632
LeftShoulder -12.592260 12.409974 29.381794
LeftArm 22.745653 -15.815493 -25.327706
LeftForeArm 16.179783 -0.000000 14.830583
LeftHand -26.809155 0.000000 -8.138046
LeftHandThumb1 -26.253704 0.000000 33.147579
RightShoulder -20.422978 15.994069 -37.800596
RightArm -2.143877 3.513948 37.909301
RightForeArm -34.469725 -0.000000 14.004447
RightHand -9.863163 0.000000 12.656500
RightHandThumb1 -24.326973 -0.000000 -32.862282
LeftUpLeg -2.451447 11.047115 3.495163
LeftLeg -3.916355 -0.000000 0.000000
LeftFoot -5.077535 -3.632809 -18.426958
LeftToeBase 8.816664 -0.000000 -0.000000
RightUpLeg -2.981772 -11.488137 -6.149460
RightLeg -1.394920 -0.000000 0.000000
RightFoot -2.896532 0.073714 4.182462
RightToeBase -3.109767 -0.000000 0.000000
2444
root 1.613667 32.909794 1.482441 9.212855 0.170950 -0.268945
Spine -8.975770 6.488222 -1.656551
Head -25.118469 -6.675197 11.320128
LeftShoulder -13.125617 13.033111 29.184744
LeftArm 22.261028 -16.517214 -25.696150
LeftForeArm 16.247642 -0.000000 14.592208
LeftHand -27.137489 -0.000000 -7.583771
LeftHandThumb1 -26.253704 0.000000 33.147579
RightShoulder -20.767966 15.523106 -37.999336
RightArm -3.131340 4.079446 37.546805
RightForeArm -34.698049 -0.000000 14.192324
RightHand -10.097361 -0.000000 12.965639
RightHandThumb1 -24.326973 -0.000000 -32.862282
LeftUpLeg -2.548907 11.070462 3.489342
LeftLeg -3.950048 -0.000000 0.000000
LeftFoot -5.115281 -3.584142 -18.414262
LeftToeBase 8.820110 -0.000000 -0.000000
RightUpLeg -3.100520 -11.510697 -6.102391
RightLeg -1.453768 -0.000000 0.000000
RightFoot -2.875225 0.155196 4.161725
RightToeBase -3.112726 -0.000000 0.000000
2445
root 1.611123 32.909481 1.503236 9.357915 0.076713 -0.271295
Spine -9.041847 6.438413 -1.731618
Head -25.278677 -6.526513 11.342713
LeftShoulder -13.819972 13.739980 28.899011
LeftArm 21.877476 -17.557900 -26.198639
LeftForeArm 16.570828 0.000000 14.667264
LeftHand -27.556202 -0.000000 -7.271991
LeftHandThumb1 -26.253704 0.000000 33.147579
RightShoulder -21.057341 15.123023 -38.156609
RightArm -4.094671 4.916551 37.175171
RightForeArm -35.300383 0.000000 14.322683
RightHand -10.363120 -0.000000 13.122357
RightHandThumb1 -24.326973 -0.000000 -32.862282
LeftUpLeg -2.628175 11.125891 3.466593
LeftLeg -3.982130 -0.000000 0.000000
LeftFoot -5.138616 -3.548025 -18.440196
LeftToeBase 8.798842 -0.000000 -0.000000
RightUpLeg -3.219418 -11.466204 -6.081308
RightLeg -1.473323 -0.000000 0.000000
RightFoot -2.882226 0.182622 4.154686
RightToeBase -3.121117 -0.000000 0.000000
2446
root 1.607906 32.909976 1.523073 9.516169 0.046412 -0.300786
Spine -9.115440 6.316860 -1.759491
Head -25.437483 -6.389962 11.376368
LeftShoulder -14.813337 15.358594 28.115051
LeftArm 22.338399 -19.297742 -26.568954
LeftForeArm 16.876034 -0.000000 14.365219
LeftHand -27.919783 -0.000000 -7.103347
LeftHandThumb1 -26.253704 0.000000 33.147579
RightShoulder -21.367013 14.766093 -38.285097
RightArm -5.117085 5.348811 36.750917
RightForeArm -35.482072 -0.000000 14.590665
RightHand -10.566648 -0.000000 13.135925
RightHandThumb1 -24.326973 -0.000000 -32.862282
LeftUpLeg -2.736189 11.078870 3.478724
LeftLeg -4.000214 -0.000000 0.000000
LeftFoot -5.175519 -3.457734 -18.441464
LeftToeBase 8.787394 -0.000000 -0.000000
RightUpLeg -3.336845 -11.511953 -6.019822
RightLeg -1.508690 -0.000000 0.000000
RightFoot -2.850326 0.237449 4.166793
RightToeBase -3.140457 -0.000000 0.000000
2447
root 1.605783 32.909890 1.544939 9.666581 -0.008139 -0.304716
Spine -9.214125 6.137294 -1.788747
Head -25.487885 -6.156324 11.318973
LeftShoulder -15.356317 15.493988 28.016459
LeftArm 21.428669 -19.739111 -26.980018
LeftForeArm 17.308832 -0.000000 14.435543
LeftHand -28.250921 -0.000000 -6.543398
LeftHandThumb1 -26.253704 0.000000 33.147579
RightShoulder -21.538962 14.493696 -38.455029
RightArm -6.252591 5.769734 36.356342
RightForeArm -35.641888 -0.000000 14.909060
RightHand -10.823469 0.000000 13.329230
RightHandThumb1 -24.326973 -0.000000 -32.862282
LeftUpLeg -2.822604 11.084941 3.460904
LeftLeg -4.036631 -0.000000 0.000000
LeftFoot -5.196064 -3.416824 -18.462894
LeftToeBase 8.851457 -0.000000 -0.000000
RightUpLeg -3.442331 -11.544542 -5.991233
RightLeg -1.551213 -0.000000 0.000000
RightFoot -2.836466 0.303929 4.165137
RightToeBase -3.124961 -0.000000 0.000000
2448
root 1.598812 32.907762 1.568352 9.788308 -0.049195 -0.320887
Spine -9.306376 6.122577 -1.843369
Head -25.512665 -6.139559 11.294399
LeftShoulder -15.720599 15.655942 27.968947
LeftArm 20.609490 -20.190457 -27.364587
LeftForeArm 17.665850 0.000000 14.453484
LeftHand -28.626325 -0.000000 -6.224666
LeftHandThumb1 -26.253704 0.000000 33.147579
RightShoulder -21.793827 14.157048 -38.647036
RightArm -7.514477 6.212012 35.929886
RightForeArm -35.871119 -0.000000 15.321429
RightHand -11.192977 -0.000000 13.580263
RightHandThumb1 -24.326973 -0.000000 -32.862282
LeftUpLeg -2.879064 11.088608 3.475732
LeftLeg -4.067727 -0.000000 0.000000
LeftFoot -5.229386 -3.396198 -18.479107
LeftToeBase 8.762937 -0.000000 -0.000000
RightUpLeg -3.516411 -11.586500 -5.945675
RightLeg -1.587620 -0.000000 0.000000
RightFoot -2.846420 0.377054 4.140723
RightToeBase -3.166818 -0.000000 0.000000
2449
root 1.594804 32.907238 1.589628 9.932808 -0.106601 -0.314773
Spine -9.411909 6.039892 -1.906610
Head -25.519138 -6.028188 11.238962
LeftShoulder -16.287158 16.124859 27.734696
LeftArm 20.060530 -21.004490 -27.785755
LeftForeArm 18.017434 -0.000000 14.468061
LeftHand -29.045920 0.000000 -5.814302
LeftHandThumb1 -26.253704 0.000000 33.147579
RightShoulder -21.992535 13.855223 -38.833974
RightArm -8.732285 6.561858 35.561068
RightForeArm -35.780759 -0.000000 15.610397
RightHand -11.502615 -0.000000 13.007400
RightHandThumb1 -24.326973 -0.000000 -32.862282
LeftUpLeg -2.964223 11.106447 3.452035
LeftLeg -4.092290 -0.000000 0.000000
LeftFoot -5.252211 -3.368430 -18.502553
LeftToeBase 8.766950 -0.000000 -0.000000
RightUpLeg -3.621301 -11.596271 -5.927364
RightLeg -1.620302 -0.000000 0.000000
RightFoot -2.850616 0.436674 4.144462
RightToeBase -3.197505 -0.000000 0.000000
2450
root 1.591109 32.906831 1.611418 10.081574 -0.171043 -0.312259
Spine -9.523650 5.999191 -1.957909
Head -25.565071 -5.934278 11.160498
LeftShoulder -16.733986 16.505885 27.508861
LeftArm 19.345536 -21.805163 -28.148542
LeftForeArm 18.204831 -0.000000 14.550707
LeftHand -29.419992 -0.000000 -5.384053
LeftHandThumb1 -26.253704 0.000000 33.147579
RightShoulder -22.200183 13.589685 -39.019824
RightArm -10.044845 7.126013 35.115848
RightForeArm -35.952866 -0.000000 15.978778
RightHand -11.995462 -0.000000 13.072003
RightHandThumb1 -24.326973 -0.000000 -32.862282
LeftUpLeg -3.044052 11.122757 3.432183
LeftLeg -4.134829 -0.000000 0.000000
LeftFoot -5.258251 -3.326903 -18.515380
LeftToeBase 8.788130 -0.000000 -0.000000
RightUpLeg -3.727145 -11.572059 -5.908786
RightLeg -1.660043 -0.000000 0.000000
RightFoot -2.840702 0.457643 4.133800
RightToeBase -3.207706 -0.000000 0.000000
